<svg class="svg-icon" style="width: 1em; height: 1em;vertical-align: middle;fill: currentColor;overflow: hidden;" viewBox="0 0 1024 1024" version="1.1" xmlns="http://www.w3.org/2000/svg"><path d="M765 375.8h-506c-118.2 0-214 95.8-214 214s95.8 214 214 214c98 0 180.6-65.8 206-155.6h94c25.4 89.8 108 155.6 206 155.6 118.2 0 214-95.8 214-214s-95.8-214-214-214z" fill="#FFFFFF" /><path d="M765 765c-98 0-180.6-65.8-206-155.6h-94c-25.4 89.8-108 155.6-206 155.6-111.6 0-203.4-85.4-213.2-194.6-0.6 6.4-0.8 12.8-0.8 19.4 0 118.2 95.8 214 214 214 98 0 180.6-65.8 206-155.6h94c25.4 89.8 108 155.6 206 155.6 118.2 0 214-95.8 214-214 0-6.6-0.4-13-0.8-19.4-10 109-101.6 194.6-213.2 194.6z" fill="#E6E7E8" /><path d="M765 813.6c-97.2 0-183.8-63.6-213.2-155.6h-79.4c-29.4 92-116 155.6-213.2 155.6-123.4 0-223.8-100.4-223.8-223.8S135.8 366 259.2 366h506c123.4 0 223.8 100.4 223.8 223.8-0.2 123.4-100.6 223.8-224 223.8z m-300-175.2h94c4.4 0 8.2 2.8 9.4 7 24.8 87.4 105.6 148.6 196.6 148.6 112.6 0 204.4-91.6 204.4-204.4 0-112.6-91.6-204.4-204.4-204.4h-506c-112.6 0-204.4 91.6-204.4 204.4 0 112.6 91.6 204.4 204.4 204.4 91 0 171.8-61 196.6-148.6 1.2-4 5-7 9.4-7z" fill="#402943" /><path d="M259 589.8m-175.2 0a175.2 175.2 0 1 0 350.4 0 175.2 175.2 0 1 0-350.4 0Z" fill="#E6E7E8" /><path d="M259 414.8c-3.2 0-6.6 0.2-9.8 0.2 92.2 5 165.4 81.4 165.4 174.8s-73.2 169.8-165.4 174.8c3.2 0.2 6.4 0.2 9.8 0.2 96.8 0 175.2-78.4 175.2-175.2s-78.4-174.8-175.2-174.8z" fill="#BCBEC0" /><path d="M259 765c3.2 0 6.6-0.2 9.8-0.2-92.2-5-165.4-81.4-165.4-174.8s73.2-169.8 165.4-174.8c-3.2-0.2-6.4-0.2-9.8-0.2-96.8 0-175.2 78.4-175.2 175.2s78.6 174.8 175.2 174.8z" fill="#FFFFFF" /><path d="M259 769.8c-99.2 0-180-80.8-180-180s80.8-180 180-180 180 80.8 180 180-80.8 180-180 180z m0-350.2c-93.8 0-170.2 76.4-170.2 170.2S165.2 760 259 760s170.2-76.4 170.2-170.2-76.2-170.2-170.2-170.2z" fill="#402943" /><path d="M765 589.8m-175.2 0a175.2 175.2 0 1 0 350.4 0 175.2 175.2 0 1 0-350.4 0Z" fill="#E6E7E8" /><path d="M765 414.8c-3.2 0-6.6 0.2-9.8 0.2 92.2 5 165.4 81.4 165.4 174.8s-73.2 169.8-165.4 174.8c3.2 0.2 6.4 0.2 9.8 0.2 96.8 0 175.2-78.4 175.2-175.2s-78.6-174.8-175.2-174.8z" fill="#BCBEC0" /><path d="M765 765c3.2 0 6.6-0.2 9.8-0.2-92.2-5-165.4-81.4-165.4-174.8s73.2-169.8 165.4-174.8c-3.2-0.2-6.4-0.2-9.8-0.2-96.8 0-175.2 78.4-175.2 175.2s78.4 174.8 175.2 174.8z" fill="#FFFFFF" /><path d="M765 769.8c-99.2 0-180-80.8-180-180s80.8-180 180-180 180 80.8 180 180-80.8 180-180 180z m0-350.2c-93.8 0-170.2 76.4-170.2 170.2s76.4 170.2 170.2 170.2 170.2-76.4 170.2-170.2-76.4-170.2-170.2-170.2z" fill="#402943" /><path d="M589.8 375.8c0-21.4 17.4-39 39-39H726c21.4 0 39 17.4 39 39h-175.2z" fill="#59C3F0" /><path d="M726 336.8h-39c21.4 0 39 17.4 39 39h39c0-21.6-17.4-39-39-39z" fill="#21A0D6" /><path d="M628.8 336.8h39c-21.4 0-39 17.4-39 39h-39c0-21.6 17.4-39 39-39z" fill="#96DCFA" /><path d="M765 385.6h-175.2c-5.4 0-9.8-4.4-9.8-9.8 0-26.8 21.8-48.6 48.6-48.6H726c26.8 0 48.6 21.8 48.6 48.6 0 5.4-4.2 9.8-9.6 9.8z m-163.8-19.6h152.4c-4-11.4-14.8-19.4-27.6-19.4h-97.2c-12.8 0-23.6 8.2-27.6 19.4z" fill="#402943" /><path d="M259 375.8c0-21.4 17.4-39 39-39h97.2c21.4 0 39 17.4 39 39h-175.2z" fill="#59C3F0" /><path d="M395.2 336.8h-39c21.4 0 39 17.4 39 39h39c0-21.6-17.4-39-39-39z" fill="#21A0D6" /><path d="M298 336.8h39c-21.4 0-39 17.4-39 39h-39c0-21.6 17.4-39 39-39z" fill="#96DCFA" /><path d="M434.2 385.6h-175.2c-5.4 0-9.8-4.4-9.8-9.8 0-26.8 21.8-48.6 48.6-48.6h97.2c26.8 0 48.6 21.8 48.6 48.6 0.2 5.4-4 9.8-9.4 9.8z m-163.8-19.6h152.4c-4-11.4-14.8-19.4-27.6-19.4H298c-12.8 0-23.6 8.2-27.6 19.4z" fill="#402943" /><path d="M541.2 492.6h-58.4c-10.8 0-19.4-8.8-19.4-19.4 0-10.8 8.8-19.4 19.4-19.4h58.4c10.8 0 19.4 8.8 19.4 19.4 0 10.6-8.6 19.4-19.4 19.4z" fill="#F05458" /><path d="M541.2 453.6h-19.4c10.8 0 19.4 8.8 19.4 19.4 0 10.8-8.8 19.4-19.4 19.4h19.4c10.8 0 19.4-8.8 19.4-19.4 0-10.6-8.6-19.4-19.4-19.4z" fill="#D9383C" /><path d="M482.8 492.6h19.4c-10.8 0-19.4-8.8-19.4-19.4 0-10.8 8.8-19.4 19.4-19.4h-19.4c-10.8 0-19.4 8.8-19.4 19.4 0 10.6 8.6 19.4 19.4 19.4z" fill="#F0787B" /><path d="M541.2 502.2h-58.4c-16 0-29.2-13-29.2-29.2s13-29.2 29.2-29.2h58.4c16 0 29.2 13 29.2 29.2s-13.2 29.2-29.2 29.2z m-58.4-38.8c-5.4 0-9.8 4.4-9.8 9.8s4.4 9.8 9.8 9.8h58.4c5.4 0 9.8-4.4 9.8-9.8s-4.4-9.8-9.8-9.8h-58.4z" fill="#402943" /><path d="M541.2 570.4h-58.4c-10.8 0-19.4-8.8-19.4-19.4 0-10.8 8.8-19.4 19.4-19.4h58.4c10.8 0 19.4 8.8 19.4 19.4 0 10.6-8.6 19.4-19.4 19.4z" fill="#FCD64B" /><path d="M541.2 531.4h-19.4c10.8 0 19.4 8.8 19.4 19.4 0 10.8-8.8 19.4-19.4 19.4h19.4c10.8 0 19.4-8.8 19.4-19.4 0-10.6-8.6-19.4-19.4-19.4z" fill="#F5AB33" /><path d="M482.8 570.4h19.4c-10.8 0-19.4-8.8-19.4-19.4 0-10.8 8.8-19.4 19.4-19.4h-19.4c-10.8 0-19.4 8.8-19.4 19.4 0 10.6 8.6 19.4 19.4 19.4z" fill="#FFECA6" /><path d="M541.2 580.2h-58.4c-16 0-29.2-13-29.2-29.2 0-16 13-29.2 29.2-29.2h58.4c16 0 29.2 13 29.2 29.2 0 16-13.2 29.2-29.2 29.2z m-58.4-39c-5.4 0-9.8 4.4-9.8 9.8s4.4 9.8 9.8 9.8h58.4c5.4 0 9.8-4.4 9.8-9.8s-4.4-9.8-9.8-9.8h-58.4z" fill="#402943" /><path d="M473 317.4h77.8v58.4h-77.8z" fill="#E6E7E8" /><path d="M531.4 317.4h19.4v58.4h-19.4z" fill="#BCBEC0" /><path d="M473 317.4h19.4v58.4h-19.4z" fill="#FFFFFF" /><path d="M551 385.6h-77.8c-5.4 0-9.8-4.4-9.8-9.8v-58.4c0-5.4 4.4-9.8 9.8-9.8h77.8c5.4 0 9.8 4.4 9.8 9.8v58.4c-0.2 5.4-4.6 9.8-9.8 9.8z m-68.2-19.6h58.4v-39h-58.4V366z" fill="#402943" /><path d="M473 346.6h78" fill="#E6E7E8" /><path d="M551 351.4h-77.8c-2.6 0-4.8-2.2-4.8-4.8 0-2.6 2.2-4.8 4.8-4.8h77.8c2.6 0 4.8 2.2 4.8 4.8 0 2.6-2.2 4.8-4.8 4.8z" fill="#402943" /><path d="M502.2 220.2h19.4v97.2h-19.4z" fill="#402943" /><path d="M356.4 551H298v-58.4c0-10.8-8.8-19.4-19.4-19.4h-39c-10.8 0-19.4 8.8-19.4 19.4v58.4H161.8c-10.8 0-19.4 8.8-19.4 19.4v39c0 10.8 8.8 19.4 19.4 19.4h58.4v58.4c0 10.8 8.8 19.4 19.4 19.4h39c10.8 0 19.4-8.8 19.4-19.4v-58.4h58.4c10.8 0 19.4-8.8 19.4-19.4v-39c0-10.8-8.8-19.4-19.4-19.4z" fill="#4AB5AC" /><path d="M278.6 492.6v68h19.4v-68c0-10.8-8.8-19.4-19.4-19.4h-19.4c10.6-0.2 19.4 8.6 19.4 19.4zM278.6 687.2c0 10.8-8.8 19.4-19.4 19.4h19.4c10.8 0 19.4-8.8 19.4-19.4v-68.2h-19.4v68.2zM356.4 551h-19.4c10.8 0 19.4 8.8 19.4 19.4v39c0 10.8-8.8 19.4-19.4 19.4h19.4c10.8 0 19.4-8.8 19.4-19.4v-39c0-10.8-8.8-19.4-19.4-19.4z" fill="#3F9991" /><path d="M239.6 687.2v-68.2h-19.4v68.2c0 10.8 8.8 19.4 19.4 19.4h19.4c-10.8 0-19.4-8.8-19.4-19.4zM239.6 492.6c0-10.8 8.8-19.4 19.4-19.4h-19.4c-10.8 0-19.4 8.8-19.4 19.4v68h19.4v-68zM161.8 628.8h19.4c-10.8 0-19.4-8.8-19.4-19.4v-39c0-10.8 8.8-19.4 19.4-19.4h-19.4c-10.8 0-19.4 8.8-19.4 19.4v39c-0.2 10.6 8.6 19.4 19.4 19.4z" fill="#5BDED3" /><path d="M278.6 716.4h-39c-16 0-29.2-13-29.2-29.2v-48.6H161.8c-16 0-29.2-13-29.2-29.2v-39c0-16 13-29.2 29.2-29.2h48.6v-48.6c0-16 13-29.2 29.2-29.2h39c16 0 29.2 13 29.2 29.2v48.6h48.6c16 0 29.2 13 29.2 29.2v39c0 16-13 29.2-29.2 29.2h-48.6v48.6c-0.2 16-13.2 29.2-29.2 29.2z m-116.8-155.8c-5.4 0-9.8 4.4-9.8 9.8v39c0 5.4 4.4 9.8 9.8 9.8h58.4c5.4 0 9.8 4.4 9.8 9.8v58.4c0 5.4 4.4 9.8 9.8 9.8h39c5.4 0 9.8-4.4 9.8-9.8v-58.4c0-5.4 4.4-9.8 9.8-9.8h58.4c5.4 0 9.8-4.4 9.8-9.8v-39c0-5.4-4.4-9.8-9.8-9.8H298c-5.4 0-9.8-4.4-9.8-9.8v-58.4c0-5.4-4.4-9.8-9.8-9.8h-39c-5.4 0-9.8 4.4-9.8 9.8v58.4c0 5.4-4.4 9.8-9.8 9.8h-58z" fill="#402943" /><path d="M765 492.6m-39 0a39 39 0 1 0 78 0 39 39 0 1 0-78 0Z" fill="#59C3F0" /><path d="M765 512c-18.2 0-33.4-12.4-37.6-29.2-0.8 3.2-1.2 6.4-1.2 9.8 0 21.4 17.4 39 39 39 21.4 0 39-17.4 39-39 0-3.4-0.4-6.6-1.2-9.8-4.8 16.8-20 29.2-38 29.2z" fill="#21A0D6" /><path d="M765 541.2c-26.8 0-48.6-21.8-48.6-48.6s21.8-48.6 48.6-48.6 48.6 21.8 48.6 48.6-21.8 48.6-48.6 48.6z m0-77.8c-16 0-29.2 13-29.2 29.2s13 29.2 29.2 29.2c16 0 29.2-13 29.2-29.2s-13.2-29.2-29.2-29.2z" fill="#402943" /><path d="M765 687.2m-39 0a39 39 0 1 0 78 0 39 39 0 1 0-78 0Z" fill="#4AB5AC" /><path d="M765 706.6c-18.2 0-33.4-12.4-37.6-29.2-0.8 3.2-1.2 6.4-1.2 9.8 0 21.4 17.4 39 39 39 21.4 0 39-17.4 39-39 0-3.4-0.4-6.6-1.2-9.8-4.8 16.8-20 29.2-38 29.2z" fill="#3F9991" /><path d="M765 735.8c-26.8 0-48.6-21.8-48.6-48.6s21.8-48.6 48.6-48.6 48.6 21.8 48.6 48.6-21.8 48.6-48.6 48.6z m0-77.8c-16 0-29.2 13-29.2 29.2 0 16 13 29.2 29.2 29.2 16 0 29.2-13 29.2-29.2s-13.2-29.2-29.2-29.2z" fill="#402943" /><path d="M862.2 589.8m-39 0a39 39 0 1 0 78 0 39 39 0 1 0-78 0Z" fill="#F05458" /><path d="M862.2 609.2c-18.2 0-33.4-12.4-37.6-29.2-0.8 3.2-1.2 6.4-1.2 9.8 0 21.4 17.4 39 39 39 21.4 0 39-17.4 39-39 0-3.4-0.4-6.6-1.2-9.8-4.6 16.8-19.8 29.2-38 29.2z" fill="#D9383C" /><path d="M862.2 638.4c-26.8 0-48.6-21.8-48.6-48.6s21.8-48.6 48.6-48.6 48.6 21.8 48.6 48.6-21.8 48.6-48.6 48.6z m0-77.8c-16 0-29.2 13-29.2 29.2 0 16 13 29.2 29.2 29.2 16 0 29.2-13 29.2-29.2 0-16-13-29.2-29.2-29.2z" fill="#402943" /><path d="M667.6 589.8m-39 0a39 39 0 1 0 78 0 39 39 0 1 0-78 0Z" fill="#FCD64B" /><path d="M667.6 609.2c-18.2 0-33.4-12.4-37.6-29.2-0.8 3.2-1.2 6.4-1.2 9.8 0 21.4 17.4 39 39 39 21.4 0 39-17.4 39-39 0-3.4-0.4-6.6-1.2-9.8-4.6 16.8-19.8 29.2-38 29.2z" fill="#F5AB33" /><path d="M667.6 638.4c-26.8 0-48.6-21.8-48.6-48.6s21.8-48.6 48.6-48.6 48.6 21.8 48.6 48.6c0.2 26.8-21.8 48.6-48.6 48.6z m0-77.8c-16 0-29.2 13-29.2 29.2 0 16 13 29.2 29.2 29.2 16 0 29.2-13 29.2-29.2 0-16-13-29.2-29.2-29.2z" fill="#402943" /><path d="M570.4 229.8h-116.8c-5.4 0-9.8-4.4-9.8-9.8s4.4-9.8 9.8-9.8h116.8c5.4 0 9.8 4.4 9.8 9.8s-4.4 9.8-9.8 9.8z" fill="#402943" /></svg>